<svg width="567" height="184" viewBox="0 0 567 184" fill="none" xmlns="http://www.w3.org/2000/svg">
<path d="M220.018 62.9936L230.741 45.4667C240.123 29.4862 247.855 21.2383 261.052 12.2686C257.753 10.2066 254.041 9.38181 248.886 9.38181C246.618 9.38181 244.865 9.588 242.081 10.2066C242.185 11.3407 242.185 11.8562 242.185 12.8872C242.185 18.6608 240.329 24.2282 237.03 28.6614C233.421 33.5071 228.885 36.3939 224.761 36.3939C221.668 36.3939 219.193 33.9195 219.193 30.6203C219.193 23.6096 225.379 15.9802 234.349 11.7531C236.617 10.7221 238.267 10.1035 240.947 9.38181C239.607 4.02063 236.411 1.03073 231.772 1.03073C226.204 1.03073 219.915 4.74232 215.482 10.7221C213.935 12.8872 212.079 16.4957 212.079 17.9391C211.976 18.5577 211.873 18.7639 211.461 18.7639C211.152 18.7639 210.945 18.5577 210.945 18.1453C210.945 17.0112 212.183 13.9182 213.626 11.65C218.059 4.63922 225.379 -0.00026273 231.978 -0.00026273C236.823 -0.00026273 240.741 3.60823 241.875 9.17561C245.071 8.55701 246.824 8.35081 249.402 8.35081C254.763 8.35081 258.577 9.38181 262.186 11.65C265.485 9.69111 270.331 7.83531 271.774 7.83531C272.29 7.83531 272.702 8.14461 272.702 8.55701C272.702 8.96941 272.393 9.07251 271.774 9.07251C269.918 8.96941 266.928 10.1035 263.011 12.2686C266.516 15.4647 268.269 19.1763 268.269 23.3003C268.269 31.9606 261.877 38.0435 248.886 41.7551C255.588 43.9202 260.433 50.0031 260.433 56.2921C260.433 68.0455 247.752 79.7989 235.174 79.7989C229.71 79.7989 225.173 75.6749 225.173 70.623C225.173 63.3029 233.421 55.158 240.741 55.158C242.081 55.158 243.112 55.6735 243.112 56.2921C243.112 56.4983 242.906 56.8076 242.7 56.8076C242.597 56.8076 242.185 56.6014 241.463 56.3952C241.257 56.2921 241.05 56.2921 240.741 56.2921C233.834 56.2921 226.307 63.7153 226.307 70.623C226.307 75.1594 230.328 78.6648 235.483 78.6648C245.999 78.6648 255.897 67.1176 255.897 54.7456C255.897 47.838 253.113 44.0233 246.927 42.2706C244.865 42.5799 243.319 42.7861 242.185 42.7861C241.154 42.7861 239.813 42.683 238.164 42.4768L233.73 50.2093C227.751 60.6223 223.833 65.9835 218.781 70.8292C211.255 78.0462 201.46 82.3764 192.8 82.3764C188.882 82.3764 184.861 81.4485 182.077 79.7989C177.129 76.9121 173.933 70.9323 173.933 64.7463C173.933 54.6426 180.634 44.4357 191.563 38.1466C197.13 34.9505 203.213 33.0947 208.265 33.0947C217.75 33.0947 223.524 37.8373 223.524 45.776C223.524 49.9 221.977 53.8178 218.884 57.3231C217.234 59.282 215.276 60.7254 214.451 60.7254C214.245 60.7254 213.935 60.4161 213.935 60.1068C213.935 59.7975 214.141 59.6944 214.657 59.3851C218.781 57.7355 222.389 51.0341 222.389 45.2605C222.389 38.559 217.028 34.2288 208.574 34.2288C200.429 34.2288 192.078 37.9404 185.789 44.4357C179.603 50.8279 175.788 58.9727 175.788 65.9835C175.788 75.4687 182.284 81.2423 193.006 81.2423C202.594 81.2423 213.11 74.1284 220.018 62.9936ZM241.154 10.4128C238.782 11.0314 238.164 11.2376 236.411 11.9593C226.823 16.0833 220.224 23.7127 220.224 30.6203C220.224 33.1978 222.183 35.2598 224.761 35.2598C232.699 35.2598 241.257 23.7127 241.257 12.9903C241.257 11.9593 241.257 11.5469 241.154 10.4128ZM239.298 40.621H241.463C243.216 40.621 244.247 40.7241 247.03 41.2396C256.103 39.8993 265.382 29.28 265.382 20.1042C265.382 17.3205 264.351 15.0523 261.98 12.9903C254.041 18.0422 249.298 23.7127 240.226 39.0745L239.298 40.621Z" fill="white"/>
<path d="M277.635 65.3628C277.61 68.4966 276.97 70.8658 275.717 72.4703C274.463 74.0748 272.621 74.8771 270.189 74.8771C268.835 74.8771 267.557 74.5637 266.353 73.9369C265.15 73.3102 264.172 72.3449 263.42 71.0413C262.668 69.7376 262.292 68.1206 262.292 66.1901C262.292 64.009 262.756 62.1538 263.683 60.6245C264.611 59.0701 265.726 57.9043 267.03 57.1272C268.359 56.35 269.612 55.9614 270.791 55.9614C272.721 55.9614 274.313 56.6132 275.567 57.9169C276.82 59.1955 277.447 61.0005 277.447 63.3321L276.996 63.821L267.068 63.4825C267.093 66.0146 267.569 67.9576 268.497 69.3114C269.449 70.6402 270.728 71.3045 272.332 71.3045C273.686 71.3045 274.839 70.8156 275.792 69.8379C276.745 68.8351 277.284 67.3308 277.409 65.3252L277.635 65.3628ZM270.377 56.9391C269.449 56.9391 268.672 57.4656 268.045 58.5186C267.444 59.5715 267.118 61.0382 267.068 62.9184L272.671 62.7304C272.771 62.2541 272.821 61.6774 272.821 61.0005C272.821 59.8473 272.621 58.8821 272.22 58.1049C271.818 57.3277 271.204 56.9391 270.377 56.9391ZM286.397 67.6568C286.397 69.3866 286.498 70.6402 286.698 71.4173C286.924 72.1945 287.262 72.7335 287.713 73.0344C288.19 73.3102 288.992 73.5859 290.12 73.8617L291.06 74.125V74.3506H279.064V74.125L280.08 73.7865C280.581 73.611 280.932 73.3979 281.132 73.1472C281.358 72.8714 281.509 72.3575 281.584 71.6054C281.659 70.8282 281.697 69.512 281.697 67.6568V64.7987C281.697 63.4198 281.634 62.4045 281.509 61.7527C281.408 61.0758 281.22 60.5994 280.944 60.3236C280.694 60.0479 280.305 59.8473 279.779 59.722L279.252 59.6091V59.3459L286.172 55.9238H286.322V60.5493H286.472C288.98 57.4656 291.085 55.9238 292.79 55.9238H293.016V61.0005H292.903C291.725 60.7248 290.584 60.5869 289.481 60.5869C288.252 60.5869 287.225 60.7498 286.397 61.0758V67.6568ZM301.544 70.0635C303.75 70.0635 305.492 70.1513 306.771 70.3268C308.049 70.5023 309.052 70.9034 309.779 71.5302C310.531 72.1318 310.907 73.0469 310.907 74.2754C310.907 75.5038 310.268 76.6445 308.99 77.6975C307.711 78.7755 306.056 79.6279 304.026 80.2547C301.995 80.8815 299.914 81.1948 297.783 81.1948C296.454 81.1948 295.401 80.9817 294.624 80.5555C293.872 80.1544 293.496 79.5652 293.496 78.7881C293.496 78.061 293.759 77.334 294.286 76.6069C294.837 75.905 295.777 75.04 297.106 74.0121C296.454 73.8116 296.003 73.5609 295.752 73.26C295.527 72.9341 295.414 72.533 295.414 72.0566C295.414 70.9786 296.241 69.324 297.896 67.0927C296.793 66.6414 295.953 66.0021 295.376 65.1748C294.825 64.3475 294.549 63.3948 294.549 62.3167C294.549 61.1134 294.862 60.0228 295.489 59.045C296.141 58.0673 297.043 57.3026 298.197 56.7511C299.35 56.1995 300.654 55.9238 302.108 55.9238H302.145C304.903 55.9238 307.811 55.9864 310.87 56.1118V56.4126L307.372 57.5784C308.501 58.5562 309.065 59.8724 309.065 61.527C309.065 62.6301 308.739 63.658 308.087 64.6107C307.46 65.5634 306.558 66.328 305.379 66.9046C304.226 67.4562 302.922 67.732 301.468 67.732C300.315 67.732 299.25 67.569 298.272 67.2431C298.121 67.9451 298.046 68.459 298.046 68.7849C298.046 69.161 298.096 69.4368 298.197 69.6123C298.322 69.7627 298.623 69.8755 299.099 69.9507C299.576 70.0259 300.39 70.0635 301.544 70.0635ZM301.092 56.7887C300.39 56.7887 299.851 57.1146 299.475 57.7665C299.099 58.3932 298.911 59.3083 298.911 60.5117C298.911 62.2415 299.237 63.7332 299.889 64.9868C300.566 66.2403 301.431 66.867 302.484 66.867C303.236 66.867 303.8 66.5537 304.176 65.9269C304.552 65.2751 304.74 64.36 304.74 63.1817C304.74 61.4267 304.402 59.9225 303.725 58.669C303.048 57.4155 302.17 56.7887 301.092 56.7887ZM301.619 79.7282C303.098 79.7282 304.439 79.4399 305.643 78.8633C306.871 78.2867 307.485 77.522 307.485 76.5693C307.485 75.8423 307.072 75.3033 306.244 74.9523C305.417 74.6013 303.825 74.4258 301.468 74.4258C299.789 74.4258 298.548 74.3381 297.745 74.1626C297.394 74.7893 297.219 75.5665 297.219 76.4941C297.219 77.3465 297.582 78.0986 298.309 78.7505C299.037 79.4023 300.14 79.7282 301.619 79.7282ZM316.483 74.9523C315.38 74.9523 314.465 74.5637 313.738 73.7865C313.036 72.9842 312.685 71.994 312.685 70.8156C312.685 69.3114 313.261 68.1331 314.414 67.2807C315.593 66.4283 317.498 65.7639 320.131 65.2876L322.199 64.9115V61.1886C322.199 59.6342 321.923 58.5436 321.372 57.9169C320.845 57.2901 320.206 56.9767 319.454 56.9767C318.902 56.9767 318.463 57.1898 318.137 57.616C317.811 58.0172 317.649 58.7693 317.649 59.8724C317.649 60.9003 317.786 62.1413 318.062 63.5953L313.136 64.2346C313.286 62.1789 313.813 60.5367 314.715 59.3083C315.643 58.0548 316.733 57.1773 317.987 56.6759C319.241 56.1745 320.519 55.9238 321.823 55.9238C323.678 55.9238 324.994 56.35 325.771 57.2024C326.549 58.0548 326.937 59.371 326.937 61.151C326.937 61.9783 326.912 63.1942 326.862 64.7987C326.812 66.5537 326.787 68.0454 326.787 69.2738C326.787 70.051 326.874 70.6151 327.05 70.9661C327.225 71.292 327.526 71.4549 327.953 71.4549C328.554 71.4549 328.955 71.1666 329.156 70.59C329.382 69.9883 329.494 68.8978 329.494 67.3183H329.833C329.883 69.7501 329.595 71.6054 328.968 72.884C328.341 74.1375 327.276 74.7642 325.771 74.7642C323.34 74.7642 322.186 73.3603 322.312 70.5524H322.161C321.284 71.9062 320.394 72.9842 319.491 73.7865C318.614 74.5637 317.611 74.9523 316.483 74.9523ZM319.078 71.2669C319.604 71.2669 320.068 71.1792 320.469 71.0037C320.895 70.8031 321.472 70.5023 322.199 70.1011V65.2876L320.431 65.9269C319.128 66.3782 318.225 66.842 317.724 67.3183C317.222 67.7947 316.972 68.3713 316.972 69.0482C316.972 69.7501 317.16 70.3017 317.536 70.7028C317.937 71.0789 318.451 71.2669 319.078 71.2669ZM338.03 67.6568C338.03 69.4368 338.068 70.7154 338.143 71.4925C338.218 72.2697 338.356 72.8088 338.556 73.1096C338.782 73.3854 339.146 73.6235 339.647 73.8241L340.587 74.125V74.3506H330.772V74.125L331.675 73.8241C332.176 73.6235 332.527 73.3854 332.728 73.1096C332.953 72.8088 333.104 72.2697 333.179 71.4925C333.279 70.7154 333.329 69.4368 333.329 67.6568V65.2124C333.329 63.7332 333.279 62.6301 333.179 61.9031C333.079 61.176 332.891 60.6621 332.615 60.3612C332.364 60.0604 331.95 59.8473 331.374 59.722L330.81 59.6091V59.3835L337.804 55.9238H337.955V59.6843H338.143C340.725 57.1773 343.082 55.9238 345.213 55.9238C346.516 55.9238 347.456 56.3124 348.033 57.0895C348.61 57.8667 348.898 59.02 348.898 60.5493V67.6568C348.898 69.4368 348.936 70.7154 349.011 71.4925C349.111 72.2697 349.262 72.8088 349.462 73.1096C349.688 73.3854 350.051 73.6235 350.553 73.8241L351.455 74.125V74.3506H341.64V74.125L342.58 73.8241C343.082 73.6235 343.433 73.3854 343.633 73.1096C343.859 72.8088 344.009 72.2697 344.084 71.4925C344.16 70.7154 344.197 69.4368 344.197 67.6568V62.3544C344.197 61.3766 344.009 60.6746 343.633 60.2484C343.257 59.8222 342.643 59.6091 341.791 59.6091C340.888 59.6091 339.634 59.8097 338.03 60.2108V67.6568ZM358.686 74.9147C356.931 74.9147 355.49 74.2127 354.362 72.8088C353.259 71.4048 352.707 69.3365 352.707 66.6038C352.707 64.4477 353.096 62.5675 353.873 60.9629C354.65 59.3584 355.703 58.13 357.032 57.2776C358.386 56.4001 359.877 55.9614 361.507 55.9614C362.083 55.9614 362.685 56.0366 363.312 56.187C363.964 56.3124 364.515 56.4879 364.967 56.7135L364.929 55.9614C364.929 54.407 364.879 53.2663 364.779 52.5393C364.678 51.7871 364.49 51.2607 364.214 50.9598C363.964 50.6339 363.563 50.4083 363.011 50.2829L362.485 50.1701V49.9445L369.554 46.7104H369.705C369.655 47.9388 369.63 50.8345 369.63 55.3973V65.6261C369.63 67.2556 369.68 68.459 369.78 69.2362C369.88 70.0134 370.056 70.5649 370.307 70.8909C370.582 71.2168 371.009 71.4424 371.585 71.5678L372.074 71.6806V71.9062L365.155 74.9147H365.042L365.004 71.2669H364.816C363.713 72.4954 362.66 73.4104 361.657 74.0121C360.679 74.6138 359.689 74.9147 358.686 74.9147ZM362.071 71.3797C362.522 71.3797 362.961 71.3296 363.387 71.2293C363.813 71.104 364.34 70.9285 364.967 70.7028V62.8808C364.967 60.9755 364.641 59.4963 363.989 58.4434C363.362 57.3904 362.459 56.8639 361.281 56.8639C360.228 56.8639 359.326 57.4656 358.574 58.669C357.847 59.8473 357.483 61.6398 357.483 64.0466C357.483 66.6539 357.909 68.5342 358.762 69.6875C359.639 70.8156 360.742 71.3797 362.071 71.3797ZM388.836 65.3628C388.811 68.4966 388.172 70.8658 386.918 72.4703C385.665 74.0748 383.822 74.8771 381.39 74.8771C380.036 74.8771 378.758 74.5637 377.554 73.9369C376.351 73.3102 375.373 72.3449 374.621 71.0413C373.869 69.7376 373.493 68.1206 373.493 66.1901C373.493 64.009 373.957 62.1538 374.884 60.6245C375.812 59.0701 376.928 57.9043 378.231 57.1272C379.56 56.35 380.814 55.9614 381.992 55.9614C383.922 55.9614 385.514 56.6132 386.768 57.9169C388.021 59.1955 388.648 61.0005 388.648 63.3321L388.197 63.821L378.269 63.4825C378.294 66.0146 378.77 67.9576 379.698 69.3114C380.651 70.6402 381.929 71.3045 383.534 71.3045C384.888 71.3045 386.041 70.8156 386.994 69.8379C387.946 68.8351 388.485 67.3308 388.611 65.3252L388.836 65.3628ZM381.578 56.9391C380.651 56.9391 379.874 57.4656 379.247 58.5186C378.645 59.5715 378.319 61.0382 378.269 62.9184L383.872 62.7304C383.973 62.2541 384.023 61.6774 384.023 61.0005C384.023 59.8473 383.822 58.8821 383.421 58.1049C383.02 57.3277 382.406 56.9391 381.578 56.9391ZM397.523 67.6568C397.523 69.4368 397.561 70.7154 397.636 71.4925C397.711 72.2697 397.849 72.8088 398.05 73.1096C398.276 73.3854 398.639 73.6235 399.14 73.8241L400.081 74.125V74.3506H390.266V74.125L391.168 73.8241C391.669 73.6235 392.02 73.3854 392.221 73.1096C392.447 72.8088 392.597 72.2697 392.672 71.4925C392.773 70.7154 392.823 69.4368 392.823 67.6568V65.2124C392.823 63.7332 392.773 62.6301 392.672 61.9031C392.572 61.176 392.384 60.6621 392.108 60.3612C391.857 60.0604 391.444 59.8473 390.867 59.722L390.303 59.6091V59.3835L397.298 55.9238H397.448V59.6843H397.636C400.219 57.1773 402.575 55.9238 404.706 55.9238C406.01 55.9238 406.95 56.3124 407.527 57.0895C408.103 57.8667 408.391 59.02 408.391 60.5493V67.6568C408.391 69.4368 408.429 70.7154 408.504 71.4925C408.605 72.2697 408.755 72.8088 408.956 73.1096C409.181 73.3854 409.545 73.6235 410.046 73.8241L410.949 74.125V74.3506H401.134V74.125L402.074 73.8241C402.575 73.6235 402.926 73.3854 403.127 73.1096C403.352 72.8088 403.503 72.2697 403.578 71.4925C403.653 70.7154 403.691 69.4368 403.691 67.6568V62.3544C403.691 61.3766 403.503 60.6746 403.127 60.2484C402.751 59.8222 402.136 59.6091 401.284 59.6091C400.381 59.6091 399.128 59.8097 397.523 60.2108V67.6568ZM419.759 70.0635C421.965 70.0635 423.708 70.1513 424.986 70.3268C426.265 70.5023 427.268 70.9034 427.995 71.5302C428.747 72.1318 429.123 73.0469 429.123 74.2754C429.123 75.5038 428.484 76.6445 427.205 77.6975C425.927 78.7755 424.272 79.6279 422.241 80.2547C420.211 80.8815 418.13 81.1948 415.999 81.1948C414.67 81.1948 413.617 80.9817 412.84 80.5555C412.088 80.1544 411.712 79.5652 411.712 78.7881C411.712 78.061 411.975 77.334 412.501 76.6069C413.053 75.905 413.993 75.04 415.322 74.0121C414.67 73.8116 414.219 73.5609 413.968 73.26C413.742 72.9341 413.63 72.533 413.63 72.0566C413.63 70.9786 414.457 69.324 416.112 67.0927C415.008 66.6414 414.169 66.0021 413.592 65.1748C413.04 64.3475 412.765 63.3948 412.765 62.3167C412.765 61.1134 413.078 60.0228 413.705 59.045C414.357 58.0673 415.259 57.3026 416.412 56.7511C417.566 56.1995 418.869 55.9238 420.323 55.9238H420.361C423.119 55.9238 426.027 55.9864 429.086 56.1118V56.4126L425.588 57.5784C426.716 58.5562 427.28 59.8724 427.28 61.527C427.28 62.6301 426.955 63.658 426.303 64.6107C425.676 65.5634 424.773 66.328 423.595 66.9046C422.442 67.4562 421.138 67.732 419.684 67.732C418.531 67.732 417.465 67.569 416.488 67.2431C416.337 67.9451 416.262 68.459 416.262 68.7849C416.262 69.161 416.312 69.4368 416.412 69.6123C416.538 69.7627 416.839 69.8755 417.315 69.9507C417.791 70.0259 418.606 70.0635 419.759 70.0635ZM419.308 56.7887C418.606 56.7887 418.067 57.1146 417.691 57.7665C417.315 58.3932 417.127 59.3083 417.127 60.5117C417.127 62.2415 417.453 63.7332 418.105 64.9868C418.782 66.2403 419.646 66.867 420.699 66.867C421.452 66.867 422.016 66.5537 422.392 65.9269C422.768 65.2751 422.956 64.36 422.956 63.1817C422.956 61.4267 422.617 59.9225 421.94 58.669C421.264 57.4155 420.386 56.7887 419.308 56.7887ZM419.835 79.7282C421.314 79.7282 422.655 79.4399 423.858 78.8633C425.087 78.2867 425.701 77.522 425.701 76.5693C425.701 75.8423 425.287 75.3033 424.46 74.9523C423.633 74.6013 422.041 74.4258 419.684 74.4258C418.004 74.4258 416.763 74.3381 415.961 74.1626C415.61 74.7893 415.435 75.5665 415.435 76.4941C415.435 77.3465 415.798 78.0986 416.525 78.7505C417.252 79.4023 418.355 79.7282 419.835 79.7282Z" fill="white"/>
<path d="M57.0544 160.873V159.521L74.0512 157.396C77.5278 156.753 80.1031 155.723 81.777 154.306C83.4509 152.761 85.1892 149.413 86.9919 144.263C88.9234 138.983 91.4342 130.034 94.5246 117.415L104.954 72.7989C111.779 43.9559 115.191 28.2468 115.191 25.6715H130.643C129.098 30.0495 124.977 45.7586 118.281 72.7989L107.465 117.222C104.375 129.326 102.508 138.146 101.864 143.683C101.349 149.091 101.735 152.568 103.023 154.113C104.311 155.658 106.693 156.753 110.169 157.396H110.362L127.359 159.521V160.873H57.0544ZM59.179 78.207H58.0202L72.6992 23.7401H73.0855C75.1457 24.2551 77.7853 24.7058 81.0044 25.0921C84.2235 25.4784 87.8289 25.6715 91.8205 25.6715H117.702L116.543 28.3755L95.104 29.1481C90.3398 29.5344 86.7344 30.5645 84.2879 32.2384C81.8414 33.7836 78.8798 37.7109 75.4032 44.0203C72.0554 50.3297 66.6473 61.7252 59.179 78.207ZM160.966 78.207C162.254 62.2403 162.834 51.231 162.705 45.1792C162.705 38.9985 161.739 34.9425 159.808 33.011C158.005 30.9508 154.4 29.6632 148.991 29.1481L128.132 28.3755L128.325 25.6715H154.013C159.164 25.6715 163.477 25.4784 166.954 25.0921C170.431 24.7058 173.585 24.2551 176.418 23.7401H176.804L162.125 78.207H160.966Z" fill="white"/>
<path d="M178.598 132.646C178.515 142.486 176.365 149.887 172.148 154.849C168.013 159.81 162.473 162.291 155.527 162.291C151.144 162.291 147.01 161.299 143.123 159.314C139.319 157.33 136.177 154.146 133.696 149.763C131.298 145.381 130.099 139.758 130.099 132.894C130.099 126.362 131.381 120.697 133.944 115.901C136.59 111.022 139.939 107.301 143.991 104.738C148.126 102.174 152.261 100.892 156.395 100.892C162.432 100.892 167.435 102.918 171.404 106.97C175.456 111.022 177.482 116.893 177.482 124.584L176.117 126.072L140.642 124.956C140.56 125.7 140.518 126.775 140.518 128.181C140.518 136.202 142.172 142.652 145.48 147.531C148.87 152.41 153.46 154.849 159.248 154.849C164.623 154.849 168.964 152.906 172.272 149.019C175.58 145.05 177.399 139.551 177.73 132.522L178.598 132.646ZM155.031 103.993C151.558 103.993 148.457 105.73 145.728 109.203C142.999 112.593 141.345 117.307 140.766 123.343L166.318 122.599C166.566 121.193 166.69 119.829 166.69 118.506C166.69 114.371 165.698 110.939 163.713 108.211C161.812 105.399 158.917 103.993 155.031 103.993ZM203.19 141.577C203.19 146.952 203.315 150.714 203.563 152.864C203.811 155.014 204.224 156.42 204.803 157.082C205.465 157.743 206.622 158.281 208.276 158.694L213.238 159.686V160.555H183.344V159.686L188.182 158.694C189.836 158.281 190.952 157.743 191.531 157.082C192.192 156.42 192.647 155.014 192.895 152.864C193.143 150.714 193.267 146.952 193.267 141.577V126.444C193.267 121.565 193.143 118.258 192.895 116.521C192.73 114.785 192.234 113.586 191.407 112.924C190.58 112.18 189.091 111.684 186.941 111.436L183.841 111.188V110.319L202.322 100.892H203.066V111.56H203.563C208.028 107.921 211.997 105.192 215.47 103.373C219.026 101.554 222.54 100.644 226.014 100.644C234.2 100.644 238.293 105.771 238.293 116.025V141.577C238.293 146.952 238.417 150.714 238.665 152.864C238.913 155.014 239.327 156.42 239.906 157.082C240.567 157.743 241.725 158.281 243.379 158.694L248.216 159.686V160.555H218.323V159.686L223.285 158.694C224.939 158.281 226.055 157.743 226.634 157.082C227.295 156.42 227.75 155.014 227.998 152.864C228.246 150.714 228.37 146.952 228.37 141.577V119.374C228.37 112.345 225.393 108.831 219.439 108.831C214.561 108.831 209.144 110.319 203.19 113.296V141.577ZM305.515 102.629C299.231 104.035 294.889 104.903 292.491 105.234C294.476 106.805 296.006 108.748 297.081 111.063C298.156 113.296 298.693 115.612 298.693 118.01C298.693 121.813 297.659 125.369 295.592 128.677C293.525 131.902 290.672 134.507 287.033 136.491C283.478 138.393 279.55 139.344 275.25 139.344C272.438 139.344 269.916 138.972 267.684 138.228C266.36 141.287 265.699 143.603 265.699 145.174C265.699 146.414 265.906 147.283 266.319 147.779C266.815 148.275 267.849 148.647 269.42 148.895C270.991 149.143 273.637 149.267 277.359 149.267C283.726 149.267 288.77 149.515 292.491 150.011C296.212 150.508 299.189 151.707 301.422 153.609C303.737 155.51 304.895 158.405 304.895 162.291C304.895 166.012 303.076 169.485 299.437 172.71C295.799 175.935 291.003 178.499 285.049 180.401C279.178 182.303 272.934 183.254 266.319 183.254C261.688 183.254 257.926 182.468 255.032 180.897C252.137 179.408 250.69 177.3 250.69 174.571C250.69 171.677 251.559 168.989 253.295 166.509C255.032 164.028 258.174 160.885 262.722 157.082C260.903 156.668 259.621 156.089 258.877 155.345C258.215 154.518 257.885 153.485 257.885 152.244C257.885 150.59 258.546 148.73 259.869 146.662C261.192 144.595 263.384 141.66 266.443 137.856C262.805 136.533 259.952 134.424 257.885 131.53C255.9 128.636 254.908 125.452 254.908 121.979C254.908 118.258 255.941 114.785 258.009 111.56C260.076 108.252 262.887 105.606 266.443 103.621C269.999 101.637 273.927 100.644 278.227 100.644C287.488 100.644 296.584 101.058 305.515 101.885V102.629ZM278.847 136.491C282.072 136.491 284.553 135.168 286.289 132.522C288.108 129.876 289.018 126.362 289.018 121.979C289.018 117.017 287.695 112.717 285.049 109.079C282.485 105.358 279.012 103.497 274.63 103.497C271.405 103.497 268.883 104.82 267.063 107.466C265.327 110.113 264.459 113.586 264.459 117.886C264.459 122.93 265.74 127.312 268.304 131.034C270.95 134.672 274.464 136.491 278.847 136.491ZM276.242 158.198C270.536 158.198 266.402 157.909 263.838 157.33C260.613 160.803 259.001 164.565 259.001 168.617C259.001 170.106 259.497 171.677 260.489 173.331C261.482 174.984 263.177 176.39 265.575 177.548C268.056 178.788 271.363 179.408 275.498 179.408C278.558 179.408 281.658 178.995 284.801 178.168C288.026 177.341 290.755 176.059 292.987 174.323C295.22 172.586 296.336 170.395 296.336 167.749C296.336 164.359 294.848 161.919 291.871 160.431C288.977 158.942 283.767 158.198 276.242 158.198ZM359.568 132.646C359.485 142.486 357.335 149.887 353.118 154.849C348.983 159.81 343.443 162.291 336.497 162.291C332.114 162.291 327.979 161.299 324.093 159.314C320.289 157.33 317.147 154.146 314.666 149.763C312.268 145.381 311.069 139.758 311.069 132.894C311.069 126.362 312.35 120.697 314.914 115.901C317.56 111.022 320.909 107.301 324.961 104.738C329.096 102.174 333.23 100.892 337.365 100.892C343.401 100.892 348.404 102.918 352.373 106.97C356.425 111.022 358.451 116.893 358.451 124.584L357.087 126.072L321.612 124.956C321.529 125.7 321.488 126.775 321.488 128.181C321.488 136.202 323.142 142.652 326.449 147.531C329.84 152.41 334.429 154.849 340.218 154.849C345.593 154.849 349.934 152.906 353.242 149.019C356.549 145.05 358.369 139.551 358.699 132.522L359.568 132.646ZM336 103.993C332.527 103.993 329.426 105.73 326.698 109.203C323.969 112.593 322.315 117.307 321.736 123.343L347.288 122.599C347.536 121.193 347.66 119.829 347.66 118.506C347.66 114.371 346.668 110.939 344.683 108.211C342.781 105.399 339.887 103.993 336 103.993ZM384.16 141.577C384.16 146.952 384.284 150.714 384.532 152.864C384.78 155.014 385.194 156.42 385.773 157.082C386.434 157.743 387.592 158.281 389.246 158.694L394.207 159.686V160.555H364.314V159.686L369.152 158.694C370.805 158.281 371.922 157.743 372.501 157.082C373.162 156.42 373.617 155.014 373.865 152.864C374.113 150.714 374.237 146.952 374.237 141.577V126.444C374.237 121.565 374.113 118.258 373.865 116.521C373.7 114.785 373.203 113.586 372.377 112.924C371.55 112.18 370.061 111.684 367.911 111.436L364.81 111.188V110.319L383.292 100.892H384.036V111.56H384.532C388.998 107.921 392.967 105.192 396.44 103.373C399.996 101.554 403.51 100.644 406.983 100.644C415.17 100.644 419.263 105.771 419.263 116.025V141.577C419.263 146.952 419.387 150.714 419.635 152.864C419.883 155.014 420.297 156.42 420.875 157.082C421.537 157.743 422.695 158.281 424.349 158.694L429.186 159.686V160.555H399.293V159.686L404.254 158.694C405.908 158.281 407.025 157.743 407.603 157.082C408.265 156.42 408.72 155.014 408.968 152.864C409.216 150.714 409.34 146.952 409.34 141.577V119.374C409.34 112.345 406.363 108.831 400.409 108.831C395.53 108.831 390.114 110.319 384.16 113.296V141.577Z" fill="white"/>
<path d="M454.271 87.7817H465.891C468.956 87.7817 471.012 87.3302 472.057 86.4272C473.103 85.5243 474.196 84.1104 475.336 82.1855H477.226L471.38 95.873H444.468V94.1265L452.952 85.6787C463.954 74.7715 469.455 66.4901 469.455 60.8345C469.455 58.7909 469.17 57.1512 468.6 55.9155C468.029 54.6799 467.281 53.8006 466.354 53.2778C465.332 52.66 464.132 52.3511 462.754 52.3511C458.904 52.3511 455.577 54.5373 452.773 58.9097L451.169 58.0186C454.972 49.8678 460.271 45.7925 467.067 45.7925C470.631 45.7925 473.554 47.0163 475.835 49.4639C478.117 51.8877 479.257 54.8105 479.257 58.2324C479.257 61.2503 478.271 64.2207 476.299 67.1436C474.35 70.0664 472.342 72.4071 470.275 74.1655L454.271 87.7817ZM484.319 80.5459C484.319 72.5853 486.517 64.8029 490.913 57.1987C495.333 49.5946 500.62 45.7925 506.775 45.7925C510.173 45.7925 512.918 47.3014 515.009 50.3193C517.1 53.3372 518.146 57.3294 518.146 62.2959C518.146 71.1595 515.936 79.1082 511.516 86.1421C507.119 93.1522 502.058 96.6572 496.331 96.6572C492.743 96.6572 489.844 95.2196 487.634 92.3442C485.424 89.4451 484.319 85.5124 484.319 80.5459ZM491.911 89.3501C491.911 92.7244 493.171 94.4116 495.689 94.4116C499.206 94.4116 502.557 88.4233 505.741 76.4468C508.949 64.4465 510.553 56.7829 510.553 53.4561C510.553 49.8441 509.318 48.0381 506.846 48.0381C503.614 48.0381 500.311 54.1214 496.937 66.2881C493.586 78.4548 491.911 86.1421 491.911 89.3501ZM454.271 152.782H465.891C468.956 152.782 471.012 152.33 472.057 151.427C473.103 150.524 474.196 149.11 475.336 147.186H477.226L471.38 160.873H444.468V159.126L452.952 150.679C463.954 139.771 469.455 131.49 469.455 125.834C469.455 123.791 469.17 122.151 468.6 120.916C468.029 119.68 467.281 118.801 466.354 118.278C465.332 117.66 464.132 117.351 462.754 117.351C458.904 117.351 455.577 119.537 452.773 123.91L451.169 123.019C454.972 114.868 460.271 110.792 467.067 110.792C470.631 110.792 473.554 112.016 475.835 114.464C478.117 116.888 479.257 119.811 479.257 123.232C479.257 126.25 478.271 129.221 476.299 132.144C474.35 135.066 472.342 137.407 470.275 139.166L454.271 152.782ZM520.391 112.789C510.838 116.21 503.971 122.187 499.789 130.718C500.929 130.338 501.797 130.088 502.391 129.969C503.008 129.827 503.745 129.755 504.601 129.755C507.761 129.755 510.375 130.825 512.442 132.963C514.534 135.078 515.579 138.286 515.579 142.587C515.579 147.91 513.797 152.425 510.232 156.132C506.692 159.816 502.533 161.657 497.757 161.657C489.083 161.657 484.747 156.382 484.747 145.831C484.747 137.965 487.955 130.587 494.371 123.696C500.787 116.805 509.318 112.587 519.963 111.042L520.391 112.789ZM492.767 153.887C492.767 157.57 494.204 159.412 497.08 159.412C499.789 159.412 501.987 156.477 503.674 150.607C505.385 144.738 506.24 140.437 506.24 137.704C506.24 134.354 504.684 132.678 501.571 132.678C500.193 132.678 499.218 132.928 498.648 133.427C498.078 133.926 497.448 135.066 496.759 136.849C494.097 144.12 492.767 149.799 492.767 153.887Z" fill="white"/>
</svg>
